<?xml version="1.0" encoding="UTF-8" standalone="no"?>
<svg
   xmlns:dc="http://purl.org/dc/elements/1.1/"
   xmlns:cc="http://creativecommons.org/ns#"
   xmlns:rdf="http://www.w3.org/1999/02/22-rdf-syntax-ns#"
   xmlns:svg="http://www.w3.org/2000/svg"
   xmlns="http://www.w3.org/2000/svg"
   xmlns:sodipodi="http://sodipodi.sourceforge.net/DTD/sodipodi-0.dtd"
   xmlns:inkscape="http://www.inkscape.org/namespaces/inkscape"
   sodipodi:docname="icon.svg"
   inkscape:version="1.0 (4035a4fb49, 2020-05-01)"
   id="svg8"
   version="1.1"
   viewBox="0 0 210 210"
   height="210mm"
   width="210mm">
  <defs
     id="defs2" />
  <sodipodi:namedview
     inkscape:window-maximized="1"
     inkscape:window-y="0"
     inkscape:window-x="0"
     inkscape:window-height="1016"
     inkscape:window-width="1920"
     showgrid="true"
     inkscape:document-rotation="0"
     inkscape:current-layer="layer1"
     inkscape:document-units="mm"
     inkscape:cy="319.2554"
     inkscape:cx="262.92973"
     inkscape:zoom="0.7"
     inkscape:pageshadow="2"
     inkscape:pageopacity="0.0"
     borderopacity="1.0"
     bordercolor="#666666"
     pagecolor="#ffffff"
     id="base">
    <inkscape:grid
       id="grid10"
       type="xygrid" />
  </sodipodi:namedview>
  <metadata
     id="metadata5">
    <rdf:RDF>
      <cc:Work
         rdf:about="">
        <dc:format>image/svg+xml</dc:format>
        <dc:type
           rdf:resource="http://purl.org/dc/dcmitype/StillImage" />
        <dc:title></dc:title>
      </cc:Work>
    </rdf:RDF>
  </metadata>
  <g
     id="layer1"
     inkscape:groupmode="layer"
     inkscape:label="Calque 1">
    <ellipse
       ry="105.07336"
       rx="104.91834"
       style="fill:#673ab7;fill-opacity:1;stroke-width:0.26922"
       cy="105.07336"
       cx="104.91834"
       id="path12" />
    <g
       inkscape:transform-center-y="579.88728"
       inkscape:transform-center-x="-710.82898"
       transform="scale(8.7422743,8.7532986)"
       id="g853"
       style="fill:#ffffff">
      <path
         d="M 0,0 H 24 V 24 H 0 Z"
         fill="none"
         id="path839" />
      <path
         d="M 12,4 V 1 L 8,5 12,9 V 6 c 3.31,0 6,2.69 6,6 0,1.01 -0.25,1.97 -0.7,2.8 l 1.46,1.46 C 19.54,15.03 20,13.57 20,12 20,7.58 16.42,4 12,4 Z m 0,14 C 8.69,18 6,15.31 6,12 6,10.99 6.25,10.03 6.7,9.2 L 5.24,7.74 C 4.46,8.97 4,10.43 4,12 c 0,4.42 3.58,8 8,8 v 3 l 4,-4 -4,-4 z"
         id="path841" />
    </g>
  </g>
</svg>
